<?xml version="1.0" encoding="UTF-8"?>
<svg id="Capa_2" data-name="Capa 2" xmlns="http://www.w3.org/2000/svg" xmlns:xlink="http://www.w3.org/1999/xlink" viewBox="0 0 161.93 47.34">
  <defs>
    <style>
      .cls-1 {
        fill: url(#Nueva_muestra_de_degradado_2);
      }

      .cls-1, .cls-2, .cls-3 {
        stroke-width: 0px;
      }

      .cls-2 {
        fill: #f39200;
      }

      .cls-3 {
        fill: #fff;
      }
    </style>
    <linearGradient id="Nueva_muestra_de_degradado_2" data-name="Nueva muestra de degradado 2" x1="138.95" y1="15.17" x2="164.67" y2="40.89" gradientUnits="userSpaceOnUse">
      <stop offset="0" stop-color="#2cb7c2"/>
      <stop offset="1" stop-color="#0e82ac"/>
    </linearGradient>
  </defs>
  <g id="Capa_1-2" data-name="Capa 1">
    <g>
      <path class="cls-3" d="m1.23,19.87c.82-1.59,1.93-2.81,3.33-3.66,1.4-.85,2.97-1.28,4.7-1.28,1.51,0,2.84.31,3.97.92,1.13.61,2.04,1.38,2.73,2.31v-2.89h5.16v20.28h-5.16v-2.96c-.66.95-1.57,1.74-2.73,2.36-1.16.62-2.5.93-4.01.93-1.71,0-3.26-.44-4.67-1.32-1.4-.88-2.51-2.12-3.33-3.72-.82-1.6-1.23-3.43-1.23-5.51s.41-3.87,1.23-5.45Zm14,2.32c-.49-.89-1.15-1.57-1.98-2.05-.83-.48-1.72-.71-2.67-.71s-1.83.23-2.64.7c-.81.46-1.46,1.14-1.96,2.03-.5.89-.75,1.95-.75,3.17s.25,2.29.75,3.2c.5.92,1.16,1.62,1.98,2.1.82.49,1.69.73,2.62.73s1.84-.24,2.67-.71c.83-.48,1.49-1.16,1.98-2.05.49-.89.73-1.96.73-3.2s-.24-2.31-.73-3.2Z"/>
      <path class="cls-3" d="m45.28,15.26v20.28h-5.16v-2.56c-.66.88-1.52,1.57-2.58,2.07-1.06.5-2.21.75-3.46.75-1.59,0-2.99-.34-4.21-1.01-1.22-.67-2.18-1.66-2.87-2.96-.7-1.31-1.04-2.86-1.04-4.67v-11.9h5.12v11.16c0,1.61.4,2.85,1.21,3.72.81.87,1.9,1.3,3.29,1.3s2.53-.43,3.33-1.3c.81-.87,1.21-2.1,1.21-3.72v-11.16h5.16Z"/>
      <path class="cls-3" d="m53.62,34.97c-1.32-.6-2.36-1.41-3.13-2.43-.77-1.02-1.19-2.16-1.26-3.4h5.16c.1.78.48,1.43,1.15,1.94.67.51,1.51.77,2.51.77s1.74-.2,2.29-.59c.55-.39.82-.89.82-1.5,0-.66-.34-1.15-1.01-1.48-.67-.33-1.74-.69-3.2-1.08-1.51-.37-2.75-.74-3.72-1.13-.96-.39-1.79-.99-2.49-1.79-.7-.81-1.04-1.89-1.04-3.26,0-1.12.32-2.15.97-3.07.65-.93,1.57-1.66,2.78-2.2,1.21-.54,2.63-.81,4.26-.81,2.42,0,4.34.6,5.78,1.81,1.44,1.21,2.23,2.84,2.38,4.89h-4.9c-.07-.81-.41-1.45-1.01-1.92-.6-.48-1.4-.71-2.4-.71-.93,0-1.64.17-2.14.51-.5.34-.75.82-.75,1.43,0,.68.34,1.2,1.02,1.56.68.35,1.74.71,3.18,1.08,1.46.37,2.67.74,3.62,1.13.95.39,1.78.99,2.47,1.81.7.82,1.06,1.9,1.08,3.24,0,1.17-.32,2.22-.97,3.15-.65.93-1.57,1.65-2.78,2.18-1.21.52-2.62.79-4.23.79s-3.15-.3-4.47-.9Z"/>
      <path class="cls-3" d="m75.4,8.45v27.09h-5.12V8.45h5.12Z"/>
      <path class="cls-3" d="m80.36,19.87c.82-1.59,1.93-2.81,3.33-3.66,1.4-.85,2.97-1.28,4.7-1.28,1.51,0,2.84.31,3.97.92,1.13.61,2.04,1.38,2.73,2.31v-2.89h5.16v20.28h-5.16v-2.96c-.66.95-1.57,1.74-2.73,2.36-1.16.62-2.5.93-4.01.93-1.71,0-3.26-.44-4.67-1.32-1.4-.88-2.51-2.12-3.33-3.72-.82-1.6-1.23-3.43-1.23-5.51s.41-3.87,1.23-5.45Zm14,2.32c-.49-.89-1.15-1.57-1.98-2.05-.83-.48-1.72-.71-2.67-.71s-1.83.23-2.64.7c-.81.46-1.46,1.14-1.96,2.03-.5.89-.75,1.95-.75,3.17s.25,2.29.75,3.2c.5.92,1.16,1.62,1.98,2.1.82.49,1.69.73,2.62.73s1.84-.24,2.67-.71c.83-.48,1.49-1.16,1.98-2.05.49-.89.73-1.96.73-3.2s-.24-2.31-.73-3.2Z"/>
      <path class="cls-3" d="m113.73,30.81l5.12-15.56h5.45l-7.5,20.28h-6.22l-7.47-20.28h5.49l5.12,15.56Z"/>
      <g>
        <path class="cls-2" d="m64.04,45.1l-3.93-1.96v-.91l3.93-1.96v.79l-2.83,1.39c-.12.05-.22.1-.32.14-.1.04-.18.07-.22.08.05.01.13.04.24.08.1.04.21.09.31.14l2.83,1.4v.82Z"/>
        <path class="cls-2" d="m68.06,45.7c-.41,0-.75-.12-1-.36-.25-.24-.37-.56-.37-.96v-2.95h-1.44v-.75h1.44v-1.42h.82v1.42h2.05v.75h-2.05v2.95c0,.17.05.31.15.42.1.11.23.16.4.16h1.46v.75h-1.46Z"/>
        <path class="cls-2" d="m73.04,45.79c-.59,0-1.07-.18-1.43-.53-.36-.36-.54-.85-.54-1.47v-1.19c0-.63.18-1.12.54-1.47.36-.36.84-.53,1.43-.53.4,0,.74.08,1.04.24.3.16.53.38.69.67.16.29.25.62.25,1.01v.89h-3.14v.47c0,.37.11.67.32.88.21.22.5.32.85.32.3,0,.56-.06.75-.18.2-.12.32-.28.36-.48h.82c-.05.42-.26.75-.61,1-.35.25-.79.37-1.32.37Zm-1.17-3.03h2.34v-.26c0-.4-.1-.7-.31-.92-.2-.22-.49-.32-.86-.32s-.66.11-.86.32c-.2.22-.31.52-.31.92v.26Z"/>
        <path class="cls-2" d="m78.59,45.79c-.61,0-1.1-.17-1.46-.51-.37-.34-.55-.81-.55-1.41v-1.37c0-.6.18-1.07.55-1.41.37-.34.85-.51,1.46-.51s1.05.16,1.4.47c.36.31.54.73.56,1.27h-.82c-.02-.32-.13-.57-.33-.74-.2-.17-.47-.26-.81-.26-.36,0-.65.1-.86.31-.22.2-.32.49-.32.87v1.38c0,.38.11.67.32.88.22.21.5.31.86.31s.61-.09.81-.26c.2-.18.31-.42.33-.74h.82c-.02.54-.21.96-.56,1.27-.36.31-.82.47-1.4.47Z"/>
        <path class="cls-2" d="m82.1,45.7v-6.67h.82v2.6h0c.04-.33.18-.59.41-.78.23-.18.54-.27.92-.27.51,0,.91.16,1.21.47.3.31.45.73.45,1.27v3.38h-.82v-3.24c0-.38-.1-.67-.29-.87-.19-.2-.45-.31-.78-.31s-.61.11-.81.32c-.2.21-.3.51-.3.9v3.2h-.82Z"/>
        <path class="cls-2" d="m87.58,45.7v-5.02h.82v.96h0c.04-.33.18-.59.41-.78.23-.18.54-.27.92-.27.51,0,.91.16,1.21.47.3.31.45.73.45,1.27v3.38h-.82v-3.23c0-.38-.1-.68-.29-.88-.19-.2-.45-.31-.78-.31s-.61.11-.81.32c-.2.21-.3.51-.3.9v3.2h-.82Z"/>
        <path class="cls-2" d="m94.96,45.77c-.6,0-1.08-.18-1.44-.53-.36-.35-.53-.85-.53-1.48v-1.15c0-.64.18-1.13.53-1.48.35-.35.83-.53,1.44-.53s1.09.18,1.44.53c.35.35.53.84.53,1.48v1.15c0,.63-.18,1.13-.53,1.48-.36.35-.84.53-1.44.53Zm0-.73c.36,0,.64-.1.84-.3.2-.2.31-.5.31-.89v-1.33c0-.39-.1-.68-.31-.89-.2-.2-.49-.3-.84-.3s-.63.1-.84.3c-.21.2-.31.5-.31.89v1.33c0,.39.1.68.31.89.21.2.49.3.84.3Z"/>
        <path class="cls-2" d="m101.17,45.7c-.44,0-.8-.13-1.06-.39-.26-.26-.4-.6-.4-1.03v-4.5h-1.74v-.75h2.56v5.25c0,.21.06.37.17.49.12.12.27.18.47.18h1.55v.75h-1.55Z"/>
        <path class="cls-2" d="m105.91,45.77c-.6,0-1.08-.18-1.44-.53-.36-.35-.53-.85-.53-1.48v-1.15c0-.64.18-1.13.53-1.48.35-.35.83-.53,1.44-.53s1.09.18,1.44.53c.35.35.53.84.53,1.48v1.15c0,.63-.18,1.13-.53,1.48-.36.35-.84.53-1.44.53Zm0-.73c.36,0,.64-.1.84-.3.2-.2.31-.5.31-.89v-1.33c0-.39-.1-.68-.31-.89-.2-.2-.49-.3-.84-.3s-.63.1-.84.3c-.21.2-.31.5-.31.89v1.33c0,.39.1.68.31.89.21.2.49.3.84.3Z"/>
        <path class="cls-2" d="m110.12,47.34v-.75h1.42c.29,0,.51-.08.68-.24.16-.16.25-.38.25-.65v-.46l.02-.82h-.03c-.05.3-.19.53-.43.69-.24.16-.54.24-.89.24-.52,0-.93-.16-1.22-.49-.3-.33-.45-.78-.45-1.35v-1.06c0-.57.15-1.03.45-1.36.3-.33.71-.5,1.22-.5.36,0,.66.09.89.26.24.17.38.4.43.7h.02v-.87h.81v5.02c0,.51-.16.91-.47,1.2-.31.3-.74.44-1.28.44h-1.41Zm1.25-2.68c.34,0,.61-.11.8-.32.19-.21.29-.51.29-.89v-.96c0-.38-.1-.67-.29-.89-.19-.21-.46-.32-.8-.32s-.62.1-.81.3c-.19.2-.29.47-.29.81v1.14c0,.34.1.61.29.81s.46.3.81.3Z"/>
        <path class="cls-2" d="m115.76,47.34l.74-1.95-1.87-4.71h.89l1.19,3.1c.05.12.09.25.14.38.04.13.07.25.09.35.02-.1.05-.21.09-.35.04-.13.09-.26.13-.38l1.11-3.1h.87l-2.5,6.67h-.86Z"/>
        <path class="cls-2" d="m120.39,45.1v-.79l2.83-1.39c.12-.05.22-.1.32-.14s.17-.07.22-.08c-.05-.01-.13-.04-.24-.08-.1-.04-.21-.09-.31-.14l-2.83-1.4v-.82l3.93,1.96v.91l-3.93,1.96Z"/>
      </g>
      <g>
        <circle class="cls-3" cx="36.86" cy="1.26" r="1.26"/>
        <circle class="cls-3" cx="42.53" cy="7.58" r=".97"/>
        <circle class="cls-3" cx="35.53" cy="20.22" r="1.44"/>
        <circle class="cls-3" cx="39.03" cy="12.18" r=".73"/>
        <circle class="cls-3" cx="29.05" cy="8.47" r="1.33"/>
      </g>
      <path class="cls-1" d="m146.33,36.36l15.59,7.27-3.37-38.57-31.71,22.2,15.59,7.27h0s-3.71.32-3.71.32l.94,10.71,8.81-6.17-2.14-3.05h0Zm-6.42-9.15l12.34-8.64,1.32,14.99-13.66-6.36Z"/>
    </g>
  </g>
</svg>